<svg xmlns="http://www.w3.org/2000/svg" viewBox="0 0 512 512"><defs><linearGradient id="a" x1="418" x2="85.7" y1="456" y2="60.5" gradientUnits="userSpaceOnUse"><stop stop-color="#a08074" offset="0"/><stop stop-color="#4d3d3d" offset="1"/></linearGradient></defs><circle cx="256" cy="256" r="256" fill="url(#a)"/><path d="m384 149c-4.12 48.8-22.2 167-31.3 222-3.9 23.2-11.5 30.9-18.8 31.6-16.1 1.62-28.2-11.8-43.8-23.3-24.3-17.8-38.1-28.9-61.6-46.3-27.3-20.1-9.59-31.1 5.91-49.2 4.12-4.73 74.8-76.6 76.1-83.1 0.223-0.872 0.334-3.86-1.34-5.48-1.67-1.62-4.01-0.997-5.68-0.623-2.45 0.581-41.3 29.3-117 86.1-11 8.47-21 12.6-30 12.3-9.92-0.249-28.9-6.23-43-11.3-17.3-6.23-31.1-9.59-29.9-20.3 0.594-5.56 7.47-11.3 20.6-17.1 80.6-39.2 134-65.1 161-77.6 76.8-35.6 92.7-41.9 103-42.1 2.34 0 7.36 0.623 10.7 3.61 2.18 2.14 3.57 5.12 3.9 8.35 0.603 4.07 0.79 8.21 0.557 12.3z" fill="#fff"/></svg>